<mxfile host="65bd71144e">
    <diagram id="h--so669adW4mN4X54Yi" name="Page-1">
        <mxGraphModel dx="186" dy="191" grid="1" gridSize="10" guides="1" tooltips="1" connect="1" arrows="1" fold="1" page="1" pageScale="1" pageWidth="850" pageHeight="1100" math="0" shadow="0">
            <root>
                <mxCell id="0"/>
                <mxCell id="1" parent="0"/>
                <mxCell id="4" value="Cockroach DB" style="rounded=0;whiteSpace=wrap;html=1;verticalAlign=bottom;fontSize=7;" vertex="1" parent="1">
                    <mxGeometry x="400" y="40" width="40" height="60" as="geometry"/>
                </mxCell>
                <mxCell id="5" value="Cache Service" style="rounded=0;whiteSpace=wrap;html=1;verticalAlign=bottom;fontSize=7;" vertex="1" parent="1">
                    <mxGeometry x="80" y="140" width="280" height="300" as="geometry"/>
                </mxCell>
                <mxCell id="11" value="AWS Step Functions workflow" style="points=[[0,0],[0.25,0],[0.5,0],[0.75,0],[1,0],[1,0.25],[1,0.5],[1,0.75],[1,1],[0.75,1],[0.5,1],[0.25,1],[0,1],[0,0.75],[0,0.5],[0,0.25]];outlineConnect=0;gradientColor=none;html=1;whiteSpace=wrap;fontSize=12;fontStyle=0;container=1;pointerEvents=0;collapsible=0;recursiveResize=0;shape=mxgraph.aws4.group;grIcon=mxgraph.aws4.group_aws_step_functions_workflow;strokeColor=#CD2264;fillColor=none;verticalAlign=top;align=left;spacingLeft=30;fontColor=#CD2264;dashed=0;" vertex="1" parent="1">
                    <mxGeometry x="80" y="140" width="280" height="280" as="geometry"/>
                </mxCell>
                <mxCell id="12" value="&lt;font style=&quot;font-size: 6px;&quot;&gt;Get Leaderboards&lt;/font&gt;" style="rounded=0;whiteSpace=wrap;html=1;verticalAlign=bottom;fontSize=7;" vertex="1" parent="11">
                    <mxGeometry x="120" y="40" width="40" height="60" as="geometry"/>
                </mxCell>
                <mxCell id="16" value="" style="sketch=0;points=[[0,0,0],[0.25,0,0],[0.5,0,0],[0.75,0,0],[1,0,0],[0,1,0],[0.25,1,0],[0.5,1,0],[0.75,1,0],[1,1,0],[0,0.25,0],[0,0.5,0],[0,0.75,0],[1,0.25,0],[1,0.5,0],[1,0.75,0]];outlineConnect=0;fontColor=#232F3E;gradientColor=#F78E04;gradientDirection=north;fillColor=#D05C17;strokeColor=#ffffff;dashed=0;verticalLabelPosition=bottom;verticalAlign=top;align=center;html=1;fontSize=12;fontStyle=0;aspect=fixed;shape=mxgraph.aws4.resourceIcon;resIcon=mxgraph.aws4.lambda;" vertex="1" parent="11">
                    <mxGeometry x="120" y="40" width="40" height="40" as="geometry"/>
                </mxCell>
                <mxCell id="13" value="" style="endArrow=classic;html=1;fontSize=7;exitX=0.5;exitY=1;exitDx=0;exitDy=0;entryX=0.5;entryY=1;entryDx=0;entryDy=0;" edge="1" parent="1" source="5" target="4">
                    <mxGeometry width="50" height="50" relative="1" as="geometry">
                        <mxPoint x="230" y="260" as="sourcePoint"/>
                        <mxPoint x="180" y="310" as="targetPoint"/>
                        <Array as="points">
                            <mxPoint x="220" y="470"/>
                            <mxPoint x="420" y="470"/>
                            <mxPoint x="420" y="110"/>
                        </Array>
                    </mxGeometry>
                </mxCell>
                <mxCell id="17" value="&lt;font style=&quot;font-size: 6px;&quot;&gt;Query AOC&lt;/font&gt;" style="rounded=0;whiteSpace=wrap;html=1;verticalAlign=bottom;fontSize=7;" vertex="1" parent="1">
                    <mxGeometry x="100" y="270" width="40" height="60" as="geometry"/>
                </mxCell>
                <mxCell id="18" value="" style="sketch=0;points=[[0,0,0],[0.25,0,0],[0.5,0,0],[0.75,0,0],[1,0,0],[0,1,0],[0.25,1,0],[0.5,1,0],[0.75,1,0],[1,1,0],[0,0.25,0],[0,0.5,0],[0,0.75,0],[1,0.25,0],[1,0.5,0],[1,0.75,0]];outlineConnect=0;fontColor=#232F3E;gradientColor=#F78E04;gradientDirection=north;fillColor=#D05C17;strokeColor=#ffffff;dashed=0;verticalLabelPosition=bottom;verticalAlign=top;align=center;html=1;fontSize=12;fontStyle=0;aspect=fixed;shape=mxgraph.aws4.resourceIcon;resIcon=mxgraph.aws4.lambda;" vertex="1" parent="1">
                    <mxGeometry x="100" y="270" width="40" height="40" as="geometry"/>
                </mxCell>
                <mxCell id="19" value="&lt;font style=&quot;font-size: 6px;&quot;&gt;Query AOC&lt;/font&gt;" style="rounded=0;whiteSpace=wrap;html=1;verticalAlign=bottom;fontSize=7;" vertex="1" parent="1">
                    <mxGeometry x="160" y="270" width="40" height="60" as="geometry"/>
                </mxCell>
                <mxCell id="20" value="" style="sketch=0;points=[[0,0,0],[0.25,0,0],[0.5,0,0],[0.75,0,0],[1,0,0],[0,1,0],[0.25,1,0],[0.5,1,0],[0.75,1,0],[1,1,0],[0,0.25,0],[0,0.5,0],[0,0.75,0],[1,0.25,0],[1,0.5,0],[1,0.75,0]];outlineConnect=0;fontColor=#232F3E;gradientColor=#F78E04;gradientDirection=north;fillColor=#D05C17;strokeColor=#ffffff;dashed=0;verticalLabelPosition=bottom;verticalAlign=top;align=center;html=1;fontSize=12;fontStyle=0;aspect=fixed;shape=mxgraph.aws4.resourceIcon;resIcon=mxgraph.aws4.lambda;" vertex="1" parent="1">
                    <mxGeometry x="160" y="270" width="40" height="40" as="geometry"/>
                </mxCell>
                <mxCell id="21" value="&lt;font style=&quot;font-size: 6px;&quot;&gt;Query AOC&lt;/font&gt;" style="rounded=0;whiteSpace=wrap;html=1;verticalAlign=bottom;fontSize=7;" vertex="1" parent="1">
                    <mxGeometry x="220" y="270" width="40" height="60" as="geometry"/>
                </mxCell>
                <mxCell id="22" value="" style="sketch=0;points=[[0,0,0],[0.25,0,0],[0.5,0,0],[0.75,0,0],[1,0,0],[0,1,0],[0.25,1,0],[0.5,1,0],[0.75,1,0],[1,1,0],[0,0.25,0],[0,0.5,0],[0,0.75,0],[1,0.25,0],[1,0.5,0],[1,0.75,0]];outlineConnect=0;fontColor=#232F3E;gradientColor=#F78E04;gradientDirection=north;fillColor=#D05C17;strokeColor=#ffffff;dashed=0;verticalLabelPosition=bottom;verticalAlign=top;align=center;html=1;fontSize=12;fontStyle=0;aspect=fixed;shape=mxgraph.aws4.resourceIcon;resIcon=mxgraph.aws4.lambda;" vertex="1" parent="1">
                    <mxGeometry x="220" y="270" width="40" height="40" as="geometry"/>
                </mxCell>
                <mxCell id="23" value="&lt;font style=&quot;font-size: 6px;&quot;&gt;Query AOC&lt;/font&gt;" style="rounded=0;whiteSpace=wrap;html=1;verticalAlign=bottom;fontSize=7;" vertex="1" parent="1">
                    <mxGeometry x="280" y="270" width="40" height="60" as="geometry"/>
                </mxCell>
                <mxCell id="24" value="" style="sketch=0;points=[[0,0,0],[0.25,0,0],[0.5,0,0],[0.75,0,0],[1,0,0],[0,1,0],[0.25,1,0],[0.5,1,0],[0.75,1,0],[1,1,0],[0,0.25,0],[0,0.5,0],[0,0.75,0],[1,0.25,0],[1,0.5,0],[1,0.75,0]];outlineConnect=0;fontColor=#232F3E;gradientColor=#F78E04;gradientDirection=north;fillColor=#D05C17;strokeColor=#ffffff;dashed=0;verticalLabelPosition=bottom;verticalAlign=top;align=center;html=1;fontSize=12;fontStyle=0;aspect=fixed;shape=mxgraph.aws4.resourceIcon;resIcon=mxgraph.aws4.lambda;" vertex="1" parent="1">
                    <mxGeometry x="280" y="270" width="40" height="40" as="geometry"/>
                </mxCell>
                <mxCell id="25" value="" style="endArrow=classic;html=1;fontSize=6;exitX=0.5;exitY=1;exitDx=0;exitDy=0;entryX=0.5;entryY=0;entryDx=0;entryDy=0;entryPerimeter=0;" edge="1" parent="1" source="12" target="18">
                    <mxGeometry width="50" height="50" relative="1" as="geometry">
                        <mxPoint x="190" y="350" as="sourcePoint"/>
                        <mxPoint x="240" y="300" as="targetPoint"/>
                    </mxGeometry>
                </mxCell>
                <mxCell id="26" value="" style="endArrow=classic;html=1;fontSize=6;exitX=0.5;exitY=1;exitDx=0;exitDy=0;entryX=0.5;entryY=0;entryDx=0;entryDy=0;entryPerimeter=0;" edge="1" parent="1" source="12" target="20">
                    <mxGeometry width="50" height="50" relative="1" as="geometry">
                        <mxPoint x="190" y="350" as="sourcePoint"/>
                        <mxPoint x="240" y="300" as="targetPoint"/>
                    </mxGeometry>
                </mxCell>
                <mxCell id="27" value="" style="endArrow=classic;html=1;fontSize=6;exitX=0.5;exitY=1;exitDx=0;exitDy=0;entryX=0.5;entryY=0;entryDx=0;entryDy=0;entryPerimeter=0;" edge="1" parent="1" source="12" target="22">
                    <mxGeometry width="50" height="50" relative="1" as="geometry">
                        <mxPoint x="190" y="350" as="sourcePoint"/>
                        <mxPoint x="240" y="300" as="targetPoint"/>
                    </mxGeometry>
                </mxCell>
                <mxCell id="29" value="" style="endArrow=classic;html=1;fontSize=6;exitX=0.5;exitY=1;exitDx=0;exitDy=0;entryX=0.5;entryY=0;entryDx=0;entryDy=0;entryPerimeter=0;" edge="1" parent="1" source="12" target="24">
                    <mxGeometry width="50" height="50" relative="1" as="geometry">
                        <mxPoint x="190" y="350" as="sourcePoint"/>
                        <mxPoint x="240" y="300" as="targetPoint"/>
                    </mxGeometry>
                </mxCell>
                <mxCell id="30" value="&lt;font style=&quot;font-size: 6px;&quot;&gt;Update DB&lt;/font&gt;" style="rounded=0;whiteSpace=wrap;html=1;verticalAlign=bottom;fontSize=7;" vertex="1" parent="1">
                    <mxGeometry x="100" y="340" width="40" height="60" as="geometry"/>
                </mxCell>
                <mxCell id="31" value="" style="sketch=0;points=[[0,0,0],[0.25,0,0],[0.5,0,0],[0.75,0,0],[1,0,0],[0,1,0],[0.25,1,0],[0.5,1,0],[0.75,1,0],[1,1,0],[0,0.25,0],[0,0.5,0],[0,0.75,0],[1,0.25,0],[1,0.5,0],[1,0.75,0]];outlineConnect=0;fontColor=#232F3E;gradientColor=#F78E04;gradientDirection=north;fillColor=#D05C17;strokeColor=#ffffff;dashed=0;verticalLabelPosition=bottom;verticalAlign=top;align=center;html=1;fontSize=12;fontStyle=0;aspect=fixed;shape=mxgraph.aws4.resourceIcon;resIcon=mxgraph.aws4.lambda;" vertex="1" parent="1">
                    <mxGeometry x="100" y="340" width="40" height="40" as="geometry"/>
                </mxCell>
                <mxCell id="32" value="&lt;font style=&quot;font-size: 6px;&quot;&gt;Update DB&lt;/font&gt;" style="rounded=0;whiteSpace=wrap;html=1;verticalAlign=bottom;fontSize=7;" vertex="1" parent="1">
                    <mxGeometry x="160" y="340" width="40" height="60" as="geometry"/>
                </mxCell>
                <mxCell id="33" value="" style="sketch=0;points=[[0,0,0],[0.25,0,0],[0.5,0,0],[0.75,0,0],[1,0,0],[0,1,0],[0.25,1,0],[0.5,1,0],[0.75,1,0],[1,1,0],[0,0.25,0],[0,0.5,0],[0,0.75,0],[1,0.25,0],[1,0.5,0],[1,0.75,0]];outlineConnect=0;fontColor=#232F3E;gradientColor=#F78E04;gradientDirection=north;fillColor=#D05C17;strokeColor=#ffffff;dashed=0;verticalLabelPosition=bottom;verticalAlign=top;align=center;html=1;fontSize=12;fontStyle=0;aspect=fixed;shape=mxgraph.aws4.resourceIcon;resIcon=mxgraph.aws4.lambda;" vertex="1" parent="1">
                    <mxGeometry x="160" y="340" width="40" height="40" as="geometry"/>
                </mxCell>
                <mxCell id="34" value="&lt;font style=&quot;font-size: 6px;&quot;&gt;Update DB&lt;/font&gt;" style="rounded=0;whiteSpace=wrap;html=1;verticalAlign=bottom;fontSize=7;" vertex="1" parent="1">
                    <mxGeometry x="220" y="340" width="40" height="60" as="geometry"/>
                </mxCell>
                <mxCell id="35" value="" style="sketch=0;points=[[0,0,0],[0.25,0,0],[0.5,0,0],[0.75,0,0],[1,0,0],[0,1,0],[0.25,1,0],[0.5,1,0],[0.75,1,0],[1,1,0],[0,0.25,0],[0,0.5,0],[0,0.75,0],[1,0.25,0],[1,0.5,0],[1,0.75,0]];outlineConnect=0;fontColor=#232F3E;gradientColor=#F78E04;gradientDirection=north;fillColor=#D05C17;strokeColor=#ffffff;dashed=0;verticalLabelPosition=bottom;verticalAlign=top;align=center;html=1;fontSize=12;fontStyle=0;aspect=fixed;shape=mxgraph.aws4.resourceIcon;resIcon=mxgraph.aws4.lambda;" vertex="1" parent="1">
                    <mxGeometry x="220" y="340" width="40" height="40" as="geometry"/>
                </mxCell>
                <mxCell id="36" value="&lt;font style=&quot;font-size: 6px;&quot;&gt;Update DB&lt;/font&gt;" style="rounded=0;whiteSpace=wrap;html=1;verticalAlign=bottom;fontSize=7;" vertex="1" parent="1">
                    <mxGeometry x="280" y="340" width="40" height="60" as="geometry"/>
                </mxCell>
                <mxCell id="37" value="" style="sketch=0;points=[[0,0,0],[0.25,0,0],[0.5,0,0],[0.75,0,0],[1,0,0],[0,1,0],[0.25,1,0],[0.5,1,0],[0.75,1,0],[1,1,0],[0,0.25,0],[0,0.5,0],[0,0.75,0],[1,0.25,0],[1,0.5,0],[1,0.75,0]];outlineConnect=0;fontColor=#232F3E;gradientColor=#F78E04;gradientDirection=north;fillColor=#D05C17;strokeColor=#ffffff;dashed=0;verticalLabelPosition=bottom;verticalAlign=top;align=center;html=1;fontSize=12;fontStyle=0;aspect=fixed;shape=mxgraph.aws4.resourceIcon;resIcon=mxgraph.aws4.lambda;" vertex="1" parent="1">
                    <mxGeometry x="280" y="340" width="40" height="40" as="geometry"/>
                </mxCell>
                <mxCell id="38" value="" style="endArrow=classic;html=1;fontSize=6;exitX=0.5;exitY=1;exitDx=0;exitDy=0;entryX=0.5;entryY=0;entryDx=0;entryDy=0;" edge="1" parent="1" source="17" target="30">
                    <mxGeometry width="50" height="50" relative="1" as="geometry">
                        <mxPoint x="210" y="390" as="sourcePoint"/>
                        <mxPoint x="260" y="340" as="targetPoint"/>
                    </mxGeometry>
                </mxCell>
                <mxCell id="41" value="" style="endArrow=classic;html=1;fontSize=7;exitX=0.5;exitY=1;exitDx=0;exitDy=0;entryX=0.5;entryY=0;entryDx=0;entryDy=0;entryPerimeter=0;" edge="1" parent="1" source="19" target="33">
                    <mxGeometry width="50" height="50" relative="1" as="geometry">
                        <mxPoint x="230" y="450" as="sourcePoint"/>
                        <mxPoint x="100" y="550" as="targetPoint"/>
                    </mxGeometry>
                </mxCell>
                <mxCell id="42" value="" style="endArrow=classic;html=1;fontSize=6;exitX=0.5;exitY=1;exitDx=0;exitDy=0;entryX=0.5;entryY=0;entryDx=0;entryDy=0;" edge="1" parent="1" source="21" target="34">
                    <mxGeometry width="50" height="50" relative="1" as="geometry">
                        <mxPoint x="210" y="390" as="sourcePoint"/>
                        <mxPoint x="260" y="340" as="targetPoint"/>
                    </mxGeometry>
                </mxCell>
                <mxCell id="43" value="" style="endArrow=classic;html=1;fontSize=6;exitX=0.5;exitY=1;exitDx=0;exitDy=0;entryX=0.5;entryY=0;entryDx=0;entryDy=0;entryPerimeter=0;" edge="1" parent="1" source="23" target="37">
                    <mxGeometry width="50" height="50" relative="1" as="geometry">
                        <mxPoint x="210" y="390" as="sourcePoint"/>
                        <mxPoint x="260" y="340" as="targetPoint"/>
                    </mxGeometry>
                </mxCell>
                <mxCell id="47" value="&lt;font style=&quot;font-size: 6px;&quot;&gt;API Gateway&lt;br&gt;&lt;/font&gt;" style="rounded=0;whiteSpace=wrap;html=1;verticalAlign=bottom;fontSize=7;" vertex="1" parent="1">
                    <mxGeometry x="560" y="400" width="40" height="60" as="geometry"/>
                </mxCell>
                <mxCell id="48" value="" style="sketch=0;points=[[0,0,0],[0.25,0,0],[0.5,0,0],[0.75,0,0],[1,0,0],[0,1,0],[0.25,1,0],[0.5,1,0],[0.75,1,0],[1,1,0],[0,0.25,0],[0,0.5,0],[0,0.75,0],[1,0.25,0],[1,0.5,0],[1,0.75,0]];outlineConnect=0;fontColor=#232F3E;gradientColor=#945DF2;gradientDirection=north;fillColor=#5A30B5;strokeColor=#ffffff;dashed=0;verticalLabelPosition=bottom;verticalAlign=top;align=center;html=1;fontSize=12;fontStyle=0;aspect=fixed;shape=mxgraph.aws4.resourceIcon;resIcon=mxgraph.aws4.api_gateway;" vertex="1" parent="1">
                    <mxGeometry x="560" y="400" width="40" height="40" as="geometry"/>
                </mxCell>
                <mxCell id="49" value="&lt;font style=&quot;font-size: 6px;&quot;&gt;GET&lt;br&gt;/events&lt;/font&gt;" style="rounded=0;whiteSpace=wrap;html=1;verticalAlign=bottom;fontSize=7;" vertex="1" parent="1">
                    <mxGeometry x="560" y="260" width="40" height="60" as="geometry"/>
                </mxCell>
                <mxCell id="50" value="" style="sketch=0;points=[[0,0,0],[0.25,0,0],[0.5,0,0],[0.75,0,0],[1,0,0],[0,1,0],[0.25,1,0],[0.5,1,0],[0.75,1,0],[1,1,0],[0,0.25,0],[0,0.5,0],[0,0.75,0],[1,0.25,0],[1,0.5,0],[1,0.75,0]];outlineConnect=0;fontColor=#232F3E;gradientColor=#F78E04;gradientDirection=north;fillColor=#D05C17;strokeColor=#ffffff;dashed=0;verticalLabelPosition=bottom;verticalAlign=top;align=center;html=1;fontSize=12;fontStyle=0;aspect=fixed;shape=mxgraph.aws4.resourceIcon;resIcon=mxgraph.aws4.lambda;" vertex="1" parent="1">
                    <mxGeometry x="560" y="260" width="40" height="40" as="geometry"/>
                </mxCell>
                <mxCell id="51" value="&lt;font style=&quot;font-size: 6px;&quot;&gt;GET&lt;br&gt;/leaderboards&lt;/font&gt;" style="rounded=0;whiteSpace=wrap;html=1;verticalAlign=bottom;fontSize=7;" vertex="1" parent="1">
                    <mxGeometry x="610" y="260" width="40" height="60" as="geometry"/>
                </mxCell>
                <mxCell id="52" value="" style="sketch=0;points=[[0,0,0],[0.25,0,0],[0.5,0,0],[0.75,0,0],[1,0,0],[0,1,0],[0.25,1,0],[0.5,1,0],[0.75,1,0],[1,1,0],[0,0.25,0],[0,0.5,0],[0,0.75,0],[1,0.25,0],[1,0.5,0],[1,0.75,0]];outlineConnect=0;fontColor=#232F3E;gradientColor=#F78E04;gradientDirection=north;fillColor=#D05C17;strokeColor=#ffffff;dashed=0;verticalLabelPosition=bottom;verticalAlign=top;align=center;html=1;fontSize=12;fontStyle=0;aspect=fixed;shape=mxgraph.aws4.resourceIcon;resIcon=mxgraph.aws4.lambda;" vertex="1" parent="1">
                    <mxGeometry x="610" y="260" width="40" height="40" as="geometry"/>
                </mxCell>
                <mxCell id="53" value="&lt;font style=&quot;font-size: 6px;&quot;&gt;GET&lt;br&gt;/member/&amp;lt;id&amp;gt;&lt;/font&gt;" style="rounded=0;whiteSpace=wrap;html=1;verticalAlign=bottom;fontSize=7;" vertex="1" parent="1">
                    <mxGeometry x="510" y="260" width="40" height="60" as="geometry"/>
                </mxCell>
                <mxCell id="54" value="" style="sketch=0;points=[[0,0,0],[0.25,0,0],[0.5,0,0],[0.75,0,0],[1,0,0],[0,1,0],[0.25,1,0],[0.5,1,0],[0.75,1,0],[1,1,0],[0,0.25,0],[0,0.5,0],[0,0.75,0],[1,0.25,0],[1,0.5,0],[1,0.75,0]];outlineConnect=0;fontColor=#232F3E;gradientColor=#F78E04;gradientDirection=north;fillColor=#D05C17;strokeColor=#ffffff;dashed=0;verticalLabelPosition=bottom;verticalAlign=top;align=center;html=1;fontSize=12;fontStyle=0;aspect=fixed;shape=mxgraph.aws4.resourceIcon;resIcon=mxgraph.aws4.lambda;" vertex="1" parent="1">
                    <mxGeometry x="510" y="260" width="40" height="40" as="geometry"/>
                </mxCell>
                <mxCell id="55" value="&lt;font style=&quot;font-size: 3.5px;&quot;&gt;GET&lt;br style=&quot;font-size: 3.5px;&quot;&gt;/scores&lt;br style=&quot;font-size: 3.5px;&quot;&gt;?event&lt;br style=&quot;font-size: 3.5px;&quot;&gt;&amp;amp;leaderboard&lt;br style=&quot;font-size: 3.5px;&quot;&gt;&lt;/font&gt;" style="rounded=0;whiteSpace=wrap;html=1;verticalAlign=bottom;fontSize=3.5;" vertex="1" parent="1">
                    <mxGeometry x="660" y="260" width="40" height="60" as="geometry"/>
                </mxCell>
                <mxCell id="56" value="" style="sketch=0;points=[[0,0,0],[0.25,0,0],[0.5,0,0],[0.75,0,0],[1,0,0],[0,1,0],[0.25,1,0],[0.5,1,0],[0.75,1,0],[1,1,0],[0,0.25,0],[0,0.5,0],[0,0.75,0],[1,0.25,0],[1,0.5,0],[1,0.75,0]];outlineConnect=0;fontColor=#232F3E;gradientColor=#F78E04;gradientDirection=north;fillColor=#D05C17;strokeColor=#ffffff;dashed=0;verticalLabelPosition=bottom;verticalAlign=top;align=center;html=1;fontSize=12;fontStyle=0;aspect=fixed;shape=mxgraph.aws4.resourceIcon;resIcon=mxgraph.aws4.lambda;" vertex="1" parent="1">
                    <mxGeometry x="660" y="260" width="40" height="40" as="geometry"/>
                </mxCell>
                <mxCell id="57" value="&lt;font style=&quot;font-size: 6px;&quot;&gt;POST&lt;br&gt;/leaderboard&lt;/font&gt;" style="rounded=0;whiteSpace=wrap;html=1;verticalAlign=bottom;fontSize=7;" vertex="1" parent="1">
                    <mxGeometry x="460" y="260" width="40" height="60" as="geometry"/>
                </mxCell>
                <mxCell id="58" value="" style="sketch=0;points=[[0,0,0],[0.25,0,0],[0.5,0,0],[0.75,0,0],[1,0,0],[0,1,0],[0.25,1,0],[0.5,1,0],[0.75,1,0],[1,1,0],[0,0.25,0],[0,0.5,0],[0,0.75,0],[1,0.25,0],[1,0.5,0],[1,0.75,0]];outlineConnect=0;fontColor=#232F3E;gradientColor=#F78E04;gradientDirection=north;fillColor=#D05C17;strokeColor=#ffffff;dashed=0;verticalLabelPosition=bottom;verticalAlign=top;align=center;html=1;fontSize=12;fontStyle=0;aspect=fixed;shape=mxgraph.aws4.resourceIcon;resIcon=mxgraph.aws4.lambda;" vertex="1" parent="1">
                    <mxGeometry x="460" y="260" width="40" height="40" as="geometry"/>
                </mxCell>
                <mxCell id="59" value="" style="endArrow=classic;html=1;fontSize=3.5;exitX=0.5;exitY=0;exitDx=0;exitDy=0;exitPerimeter=0;entryX=0.5;entryY=1;entryDx=0;entryDy=0;" edge="1" parent="1" source="48" target="57">
                    <mxGeometry width="50" height="50" relative="1" as="geometry">
                        <mxPoint x="560" y="320" as="sourcePoint"/>
                        <mxPoint x="610" y="270" as="targetPoint"/>
                        <Array as="points">
                            <mxPoint x="580" y="380"/>
                            <mxPoint x="480" y="380"/>
                        </Array>
                    </mxGeometry>
                </mxCell>
                <mxCell id="60" value="" style="endArrow=classic;html=1;fontSize=3.5;entryX=0.5;entryY=1;entryDx=0;entryDy=0;" edge="1" parent="1" target="53">
                    <mxGeometry width="50" height="50" relative="1" as="geometry">
                        <mxPoint x="580" y="400" as="sourcePoint"/>
                        <mxPoint x="490" y="330" as="targetPoint"/>
                        <Array as="points">
                            <mxPoint x="580" y="380"/>
                            <mxPoint x="530" y="380"/>
                        </Array>
                    </mxGeometry>
                </mxCell>
                <mxCell id="61" value="" style="endArrow=classic;html=1;fontSize=3.5;entryX=0.5;entryY=1;entryDx=0;entryDy=0;exitX=0.5;exitY=0;exitDx=0;exitDy=0;exitPerimeter=0;" edge="1" parent="1" source="48" target="49">
                    <mxGeometry width="50" height="50" relative="1" as="geometry">
                        <mxPoint x="590" y="410" as="sourcePoint"/>
                        <mxPoint x="540" y="330" as="targetPoint"/>
                    </mxGeometry>
                </mxCell>
                <mxCell id="62" value="" style="endArrow=classic;html=1;fontSize=3.5;entryX=0.5;entryY=1;entryDx=0;entryDy=0;" edge="1" parent="1" target="51">
                    <mxGeometry width="50" height="50" relative="1" as="geometry">
                        <mxPoint x="580" y="400" as="sourcePoint"/>
                        <mxPoint x="590" y="330" as="targetPoint"/>
                        <Array as="points">
                            <mxPoint x="580" y="380"/>
                            <mxPoint x="630" y="380"/>
                        </Array>
                    </mxGeometry>
                </mxCell>
                <mxCell id="63" value="" style="endArrow=classic;html=1;fontSize=3.5;entryX=0.5;entryY=1;entryDx=0;entryDy=0;exitX=0.5;exitY=0;exitDx=0;exitDy=0;exitPerimeter=0;" edge="1" parent="1" source="48" target="55">
                    <mxGeometry width="50" height="50" relative="1" as="geometry">
                        <mxPoint x="590" y="410" as="sourcePoint"/>
                        <mxPoint x="640" y="330" as="targetPoint"/>
                        <Array as="points">
                            <mxPoint x="580" y="380"/>
                            <mxPoint x="680" y="380"/>
                        </Array>
                    </mxGeometry>
                </mxCell>
                <mxCell id="67" value="" style="endArrow=none;html=1;fontSize=3.5;exitX=0.5;exitY=0;exitDx=0;exitDy=0;exitPerimeter=0;" edge="1" parent="1" source="58">
                    <mxGeometry width="50" height="50" relative="1" as="geometry">
                        <mxPoint x="510" y="230" as="sourcePoint"/>
                        <mxPoint x="480" y="200" as="targetPoint"/>
                    </mxGeometry>
                </mxCell>
                <mxCell id="68" value="" style="endArrow=none;html=1;fontSize=3.5;exitX=0.5;exitY=0;exitDx=0;exitDy=0;exitPerimeter=0;" edge="1" parent="1" source="54">
                    <mxGeometry width="50" height="50" relative="1" as="geometry">
                        <mxPoint x="490" y="270" as="sourcePoint"/>
                        <mxPoint x="480" y="200" as="targetPoint"/>
                        <Array as="points">
                            <mxPoint x="530" y="200"/>
                        </Array>
                    </mxGeometry>
                </mxCell>
                <mxCell id="69" value="" style="endArrow=none;html=1;fontSize=3.5;exitX=0.5;exitY=0;exitDx=0;exitDy=0;exitPerimeter=0;" edge="1" parent="1">
                    <mxGeometry width="50" height="50" relative="1" as="geometry">
                        <mxPoint x="580" y="260" as="sourcePoint"/>
                        <mxPoint x="480" y="200" as="targetPoint"/>
                        <Array as="points">
                            <mxPoint x="580" y="200"/>
                        </Array>
                    </mxGeometry>
                </mxCell>
                <mxCell id="70" value="" style="endArrow=none;html=1;fontSize=3.5;exitX=0.5;exitY=0;exitDx=0;exitDy=0;exitPerimeter=0;" edge="1" parent="1">
                    <mxGeometry width="50" height="50" relative="1" as="geometry">
                        <mxPoint x="630" y="260" as="sourcePoint"/>
                        <mxPoint x="480" y="200" as="targetPoint"/>
                        <Array as="points">
                            <mxPoint x="630" y="200"/>
                        </Array>
                    </mxGeometry>
                </mxCell>
                <mxCell id="71" value="" style="endArrow=none;html=1;fontSize=3.5;exitX=0.5;exitY=0;exitDx=0;exitDy=0;exitPerimeter=0;" edge="1" parent="1">
                    <mxGeometry width="50" height="50" relative="1" as="geometry">
                        <mxPoint x="680" y="260" as="sourcePoint"/>
                        <mxPoint x="480" y="200" as="targetPoint"/>
                        <Array as="points">
                            <mxPoint x="680" y="200"/>
                        </Array>
                    </mxGeometry>
                </mxCell>
                <mxCell id="72" value="" style="endArrow=none;html=1;fontSize=3.5;" edge="1" parent="1">
                    <mxGeometry width="50" height="50" relative="1" as="geometry">
                        <mxPoint x="420" y="180" as="sourcePoint"/>
                        <mxPoint x="480" y="200" as="targetPoint"/>
                        <Array as="points">
                            <mxPoint x="420" y="200"/>
                        </Array>
                    </mxGeometry>
                </mxCell>
                <mxCell id="73" value="" style="shape=image;verticalLabelPosition=bottom;labelBackgroundColor=default;verticalAlign=top;aspect=fixed;imageAspect=0;image=data:image/png,iVBORw0KGgoAAAANSUhEUgAABAoAAAMMCAYAAADaWkW/AABSFUlEQVR4XuzdB5hcdd3ocfD1vtf39bl6gd0NkGRnUmhSJJmZDUkooUiINEFCR6RqpCPSROnSpUcQERQQlC4oCFKkIy2G3nsngTTSc+6c9eqL/7PImdmZ2Tm7n8/zfJ/7Xkn+c6bszvn/MmWxxQAAAAAAAAAAAAAAAAAAAAAAAAAAAAAAAAAAAAAAAAAAAAAAAAAAAAAAAAAAAAAAAAAAAAAAAAAAAAAAAAAAAAAAAAAAAAAAAAAAAAAAAAAAAAAAAAAAAAAAAAAAAAAAAAAAAAAAAAAAAAAAAAAAAAAAAAAAAAAAAAAAAAAAAAAAAAAAAAAAAAAAAAAAAAAAAAAAAAAAAAAAAAAAAAAAAAAAAAAAAAAAAAAAAAAAAAAAAAAAAAAAAAAAAAAAAAAAAAAAAAAAAAAAAAAAAAAAAAAAAAAAAAAAAAAAAAAAAAAAAAAAAAAAAAAAAAAAAAAAAAAAAAAAAAAAAAAAAAAAAAAAAAAAAAAAAAAAAAAAAAAAAAAAAAAAAAAAAAAAAAAAAAAAAAAAAAAAAAAAAAAAAAAAAAAAAAAAAAAAAAAAAAAAAAAAAAAAAAAAAAAAAAAAAAAAAAAAAAAAAAAAAAAAAAAAAAAAAAAAAAAAAAAAAAAAAAAAAAAAAAAAAAAAAAAAAAAAAAAAAAAAAAAAAAAAAAAAAAAAAAAAAAAAAAAAAAAAAAAAAAAAAAAAAAAAAAAAAAAAAAAAAAAAAAAAAAAAAAAAAAAAAAAAAAAAAAAAAAAAAAAAAAAAAAAAAAAAAAAAAAAAAAAAAAAAAAAAAAAAAAAAAAAAAAAAAAAAAAAAAAAAAAAAAAAAAAAAAAAAAAAAAAAAAAAAAAAAAAAAAAAAAAAAAAAAAAAAAAAAAAAAAAAAAAAAAAAAAAAAAAAAAAAAAAAAAAAAAAAAAAAAAAAAAAAAAAAAAAAAAAAAAAAAAAAAAAAAAAAAAAAAAAAAAAAAAAAAAAAAAAAAAAAAAAAAAAAAAAAAAAAAAAAAAAAAAABoZvn8mC/0y3UM6pcvjGjJF8e05ksbteUL34iL/+/4f4v/W/xn4j8b/n0AAAAgg/q1lwaXN/7btOWLR5X/39+15ouTW3PFj8pFFfZR598tr/H/19omXju8PAAAAKCJtA4YsVxre2m/1lzhmvLm/p0uNvy17p3Oy4ovs3zZ4fEAAAAADbbUoGJHW654WnnT/mwXG/lG92x8LPExhccJAAAA1MmS/UcMKG/KDy/3dBeb9WYpPrbD42MNjx8AAACogfhf6sub78vLze9iY96sxcd6uVcZAAAAQI205Arrljfb93axCc9a98bXJbx+AAAAQAr98sPXKG+u7+hiw5317oivW3h9AQAAgC4snV8j3/l1hskNdm/ryvi6htcfAAAAKFt22cJ/t+VKx5Q30LO72FT31srXtXRsv36rfTG8PQAAAKCvWrwlX9yuvGl+vYuNdB+p8EZLrrB9fFuENw4AAAD0GeXN8fDyRvme5Ma5z3Zfy8COYng7AQAAQK/Wb8hqba250gXljfGiLjbLfb34Nvlla760dHi7AQAAQO+y8sr/2ZIrfL+8EZ7WxQZZ/9r01vbCIfFtFt6MAAAAkHnlje+4cs92sSHWv++FloHFzcLbEwAAADKpZVBxhfJm949dbIBVSe3FPy3ZPuIr4e0LAAAAmbDE4MKX23KlU8ub3HmJTa+qbUFrvnTml9tXXSK8vQEAAKBZfa4lV9i9NVd6t4uNrmpQW644pS1fmLDYYmM+H974AAAA0DTa2oujyxvZR8KNrepUvji5JVdYN7wfAAAAoEct2X/EgPLG9fLERlaN6up+uY5B4f0CAAAADTVgwMj/askVflTeqH7cxeZVjW1OueP79Vvti+H9BAAAAHXX2l4Y35IrvtLFhlU925tt7cWdynfR4uF9BgAAADXXNmj4auXN6J1dbFDVRLXkig8sNajYEd5/AAAAUBPLLltoaWkv/qy8CV0YbkrVxLWXLm7JFZYJ708AAACo0pjPlzeb+5U3nR8mNqHKSjNa84VDhw4d+r/DexcAAABSaxtU2LAtV3iyi42nstmLbfnCN8L7GQAAAP6ttoGFIW354vVdbDTVC2rJFf/cb2BxlfB+BwAAgH/RssLo/9OaL53YlivODTeX6nUtKHfOlwaMXDJ8HAAAAMDirfnCzuWN49tdbCjVqytNLf+/e8WfRRE+KAAAAOiD+uWHr9HWXnwwuYFUH+vxfu2l9cPHBwAAAH1Ey8Bhy7bkir/uYsOoPlxLe/G6fu2lweHjBQAAgF4q/oq81nzpsNb4K/O62ChKnZ9R0V46If7MivDxAwAAQC8SfzVeeSP4UrgxlD6lt+LPrig/dBYPH0sAAABk2NLtpZVbcsVbu9gISp9Z/BkW8WdZhI8rAAAAMubL7asuUd7ond3696/CS2wApUqKP9NiqQEj+4ePMwAAAJremM+35QsT2nLFKeFmT+pmM8sdns+P+UL4qAMAAKAJteQK67bmi5O72OBJNazwcluutGX4+AMAAKBJ9Mt1DCpv4K5KbuikunZ7vwGFVcPHIwAAAD2kX7/VvljerB1XbnYXmzipES1oyZUm9u/fsVT4+AQAAKBxFm/JFbZvzRXe6GLjJvVEH7a2F/aNPyMjfLACAABQRy3twwvlTdl9XWzUpB6vLVd4sm1QYcPwcQsAAECNtQ0a0a+8Ebuw3KJwcyY1W2354vWtA4YPDR/HAAAAdNfKK/9nW674g/Lma3q4GZOaufLjdm5LvnhSywqj/0/4sAYAAKAKLbnCxq35wnPhBkzKWO+05ku7lB/Snwsf4wAAAKSwVL6wYnlzdVMXGy4pyz3UliuNCh/vAAAAfIolBhe+3JYr/rS8oZrfxSZL6hW15UqXLTVgZP/w8Q8AAMD/+FxLe2nP8ibqvXBTJfXSZrXmCkcMGDDyv8IfBgAAgD6tdeDwtcqbpke72EhJfaDCy63thfHhzwUAAECfs8TgQntre/GK5MZJ6pPd2Tao46vhzwkAAECvF7/UuqW9eGR5Y/RxF5slqS+3sK29eN7SQ4e1hj83AAAAvVJrvrRNW674ahcbJEn/04ct+eL+iy025vPhzxAAAECv0Jovrd7aXvxLFxsiSZ/e02354WPDnycAAIDMil9C3ZYvnl/e8CzsYhMkKV03tgzuWD78+QIAAMiQMZ+PXzpd3uB82MWmR1LlzWvJFU5ZcuiIL4U/bQAAAE0tfql0eVPzdBcbHUndrvRu+f/drfyj9rnwZw8AAKCptA4YPrS8ibkhubGRVIceaWsvjg5/DgEAAHpc/FLolnzxpPLGZV4XmxlJ9e3yJYeUBoY/lwAAAD3hc6350rfLG5V3uti8SGpcH7e0F48cMGDkf4U/pAAAAA3RlusY2Zov/rWLDYukHqotV3y1NV/aJvx5BQAAqJulBozs35IrXhJuUCQ1UfnSXeVWD39+AQAAaiafH/OF8gbk8HIzE5sSSc3YorZ88fx+Q1ZrC3+eAQAAuqUt17FFa67wchcbEUnN37SWXOHAxQqF/xX+bAMAAFSk34DCqm250m1dbDwkZa9ny40Lf84BAAA+05cGjFyyvKE4p9yCLjYbkrLdH1sGFVcIf+4BAAC6MObz5U3EXq250tQuNheSek/z2nLF05YYXPhy+FsAAACg01K54euVNw+Pd7GhkNR7e6+lvbRn+VfA58LfCQAAQB/VL9cxqDVXuKaLDYSkvtNjrYNKa4e/HwAAgD6kX7/VvtjaXvhJeYMwp4tNg6S+WL7w2yUGF9rD3xcAAEDvtnhbe2nH8qbgzcQmQZJyxdlt+eJRyy5b+O/wlwcAANDLLDWwVGrNle7vYmMgSf9ae/G1lnxxu/KvjsXD3yUAAEDGteZLS7e2Fy4qn/wvSmwGJOnfd09LrjA8/L0CAABk0cor/2dbe/Hg8on+9C5O/iUpbfGQ8Rdtg0b0C3/NAAAAGdHSXtq0fGL/fBcn/JJUbdPacqWD4iFk+DsHAABoUkvlhq/U2l78Uxcn+JJUm/KF51pyhY3D3z8AAEAT+b/51f9v+eT9jPJJ/PzESb0k1aP20s3xcDL8fQQAAPSsz7Xki98pn7S/nziJl6T6Nz8eUsbDyvCXEwAA0GCtg0prt+YKk7o4cZekRvd+PLRcbLHx/xH+rgIAAOpsicGF9tZ84bddnKhLUg9XmNSSL60T/t4CAADqYNllC//dli8eVT4Zn508OZekpurKpfNr5MPfYwAAQG0s3pIvbtvaXnyti5NxSWrWZrfmSsf267faF8NfagAAQJXKJ9rDWvOlu7o4AZekjFR4oyVX2L78K23x8HccAACQUr8hq7W15Qo/L59kL0qedEtSJruvZWBHMfx9BwAA/DuFwv9qyRcPKJ9Qf9TFSbYkZb14+PnL1nxp6fDXHwAAECifOG9UPoF+posTa0nqbU1vbS8cstjKK/9n+LsQAAD6vJbBHcuXT5pv7OJEWpJ6ey+0DCxuFv5eBACAPmnJoSO+1JIrnFI+UZ7XxcmzJPWd2ot/WrJ9xFfC35MAANBXfK58Yrxra670buJkWZL6bgta86Uzv9y+6hLhL00AAOi12nKlUa250sNdnCBLksq15YpT2vKFCYstNubz4e9QAADoNZYaMLJ/W650WXhCLEn6lPLFyS25wrrh71MAAMi0fH7MF1pzhSPKJ72zEifBkqQ0Xd0v1zEo/P0KAACZ05YrfrM1V3i5i5NeSVJlzSl3fL9+q30x/F0LAABNr23Q8NXKJ7R3dHGiK0nqXm+2tRd3Kv+qXTz83QsAAE2nf/+OpVpypYmt8Sd3J09uJUk1qiVXfGCpQcWO8PcwAAA0i/jrDvduzZWmhiezkqQ61l66uG3QiH7hL2UAAOgx8dsM2tqLDyZOXiVJjWpaa3thn8UWG/8f4e9oAABonJVX/s/yyenx5eZ3cdIqSWp8j7W0Dy+Ev64BAKDuWgcMH9qaKz3cxUmqJKlnm9+aLx3m1QUAADRMS660Q/lEdEYXJ6eSpObp7iWHlAaGv8MBAKCGxv9HW654Whcno5Kkpqz0buug0trhb3MAAOi2JYeO+FL5pPMPyZNQSVKTN68tX/hu+HsdAACqFn/tVmu+OLmLk09JUkZqyRVPLv9KXzz8HQ8AABWJ399aPsF8ITzhlCRlr7Zc4ec+5BAAgKr9/ZsNCm+EJ5qSpOzWlitdZlgAAEDFluw/YkBLrvhKeIIpSeoV/XIxb0MAACCtpYcOay2fRD7VxYmlJKm3lC+cEf7+BwCAhAEDRv5Xa77418QJpSSp19WWK/4gfB4AAIBPWjx+72p4IilJ6rUtLPf18MkAAAA6teYLh3ZxEilJ6t1NWypfWDF8TgAAoI9ryRXWLZ8sLuriBFKS1NvLFyfn82O+ED43AADQR/Xv37GUr0GUpD5evnRm+PwAAEAf1dJevC5xwihJ6ov5vAIAgL6urb20YxcnipKkvtnrLSuM/j/hcwUAAH3ElwaMXLJ8UvheFyeKkqS+Wnvx9PD5AgCAPqJ8QvjLxAmiJKmvt6DcsPA5AwCAXq5lYEexi5NDSZLibg+fNwAA6OXik8AuTgwlSeqsbVBhw/C5AwCAXqp8AjguPCGUJCno0fJTxuLhcwgAAL1Qa670cBcnhJIk/Ust7aVNw+cQAAB6mX7tpfXDE0FJkj6lu8PnEQAAepnW9uKfujgRlCSpy5YaWCqFzyUAAPQS/QYWVwlPANV7WmbIiGjoqutGw0ZuEo0Ys0W07rjtu2ztsdtGw0dv2ln85/sN6kispb5b/itrR6t2jOt8fIxab6vE4+cfrfm1rTv/zArDNogGrjA6sY56T2250mXh8wkAAL1Ea3vx9PAEUM3d0oM7osKam0Wbb71nNGG/I6JjTzwn+uWvr4x+/4c/R/fc/3D0zLMvRu+9PyWaO29e1B2zZn0cvfPu+9Gzz78U3XXvX6Orr785mnjBpdExJ54dfXffI6KNvrFLtNLwDRPHp2wUb/7XGbtdtNPu348OO/KU6MyJF0WX/fb66M933BtNmvxU9Pobb0XTps+IFi1aFD40Uov/7tQPp0UvvvRa9PCjk6M//fmu6JLLr41OOeOC6MBDj4u2+dY+ncMFQ4VMNnuJwYUvh88pAABk3cor/2f5ZO+DLk4A1QQNXnmdzs14vKE6/8LLo1tvvyd66eXXonnz54f7sR718cezo6efeaFzUHHy6T+PdvveoZ2bv2WHrJG4Tmp88atJ4g35j489PfrN737fuWGfMuXD8G7scW++9W7noOvXv7k2OuLo06Itt5tgENXktbSX9gyfVgAAyLjW9uJW4Ymfeqblv7petNWOe3W+OuAPN9/R+a+5WRe/ouGxvz0VXXTJldF+PzgmWmvDbTpfDRFed9WueCiwy3cPjs6aeHH0l7sfjD6aNj28WzLngylTo9vuvC869cwLoh12PSBauTg2cb3VY90XPq8AAJBxrfnCb7s48VMDKq39jWjvA4/qfBn28y++Eu6Neq3pM2Z2bvrigUj8aon+Q0cmbhulL/68gIMOPyG66rqborfefi+8uXutl195Pbriqhs6B1Ad62yRuF3UuFpyhWXC5xYAADJq6NCh/7t8kjc9POlTfSqutXl0wCHHRVde27c2dJ9l9uw5nW+pOPyoU234UhR/SGD8+RC/u/oPnf/Szt/Fg4Nzz78k2vibu/kgzgbn7QcAAL1Ia760UXjCp9oVvz9//I57d362wAsvvRrua/gUr7z6RnTBRVd0vj/d2xT+XvyWjRNPOy96ZNIT3fpgwb7i/Q+mdH7OwXbf3i/qv9yoxO2pWle6IXx+AQAgo8oneGclT/jUneJNyY67HRBdec0fow8/mhbuX6hQ/C/m8afwxx/E19c+GHGDTXbq/BaCvvS2lHqI3+oS/zzGP5eGBnXr48UWG/P58DkGAIAMas0VJnVxwqcKa8uXoq9vuWv0q8uu6RUfHNespk79qPMrIMdtsUviPugtDR+9afSTUyZ6BUqdxEOD+FsfvrHNd7w9ocb1yxdGhM8xAABkTPzd1+WTu0XhyZ4q77iTzgn3I9RZ/BWRJ/30vGjVjnGJ+yNrta+4ZrTvQUdH9z34aHg1qaP4W0V22v3AxP2h6mrJFQ4Mn2cAAMiY8kndxuGJnqprs/F7hHsQGmTBgoXRTbfc2fle9Kz9C/GaG4zv/CyGadNnhFeLBonf3hHeL6q6q8PnGQAAMqZ8UvfDLk70VGWP/e2pcA9Cg8X/QnzUT86Mhq66buL+aZbiYcbOex4U3e/VAz0uHjCF94+61fPh8wwAABnTliv+posTPVXZd/b5YbgPoYfMnDmr85smCmtulrifeqr47QWH/OikzrdM0PPib46IX9ER3k/qVgvz+TFfCJ9rAADIkNZ8cXIXJ3qqsmWGjOj8Hneax8KFC6Prb7w1Wu/rOyTur0YVv7rh5NN/Hk390DdgNJOrrrspcV+pBuVLq4fPNQAAZEj5pG5e4iRP3Wqf7x8V7kd63KxZH0fvvvdB9OJLr0WTJj8V3fvAI//s9r/c1/ny67jb7ryv83+b/MQz0TPPvdT5Mv74WwbizXZvEF/HDTf7VuI+q1f/GBD0hs8fiB8D8WMhfkzEj434MRI/VuLHzD8eP/Fj6ZOPrfixFj/m4sde/BhsJvHnWnSss0XiPlMNype2CZ9rAADIiH5DVmtLnOCp2zXyVQXxS6dff/Pt6C93PxhdfNnV0Qmn/iw64JDjom133jdad9z20UrDN6zJh/vFX/0YrxW/THvL7SZEe+59eHTE0adFv7j4t9Gtt98TPffCy9HcefPCw2ta8YZ2/Y13TFzPWjXoK2tnakAQ33fxfRjfl/F9Gt+38X0c39fxfR7f9/FjILyelRY/FuO14sdm/BiNH6vxYzZ+7MaP4fixHD+mG+GSy69NHJ9qU0u+eED4fAMAQEa0DRq+WniCp9q0y3cPDvcl3fbGW+9Ef7j5jujE087rXH+dsdtFA1cYnbjsnireBK6+xsbR1jvtEx19wlnRldfeFD39zAvR/PkLwqvSNK674daa/qty/6Ejo0N/fHL0wZSp4UU1hfi+iO+T+L6J76P4vorvs1oMk2pV/JiOH9vxYzx+rMeP+fixX0tz5syNvrrG1xOXrdrUki+eFD7fAACQEa350kbhCZ5q14MPTQr3J6lNnzEzuuW2u6OfnDIx2uZb+0QrDvtaYv2s1H+5UZ1fP3fYkad0bszffue98Or2qPgl6L+67JroK4UNE8deSbt979CGvZIkrfi2jm/z+LaP74P4vgiPOyvFPwPxz0L8MxH/bMQ/I9U6+2e/Sqyv2tWWK1waPt8AAJARLbnSDuEJnmpX/F74tOLNavye7mNOPDv62qY7RUsPbp5/4a1Hw0ZtGk3Y74joN7/7ffTOu++HN0ePmDFzVuftH78qIDzef9daG24T3XP/w+FyPSK+LePbNL5t49s4PNbeVPwzEv+sxPdZ/LMT/wyl8eFH05r6qzN7Qy3txevC5xsAADKiNV/6dniCp9p26RXXhfuUf4o3ptfecEvnv0T35Y1L/N73MRtt988NX0+/VSF+VcBOux+YOM6wIauM6fz6xbQb1HqIb6t/DJji27AWnyOQ1eKfofhnKf6Zin+2Ps2Rx52R+LuqeXeGzzcAAGREa3th3y5O8FTDll99/c5Piv+H2bPnRFdff3O0424HZPpl4PUs3oDve9DRnR842JNDgz/fcW80fHTX/yq/+16HRu+9PyX8Kw0R3ybxbRPfRvFtFR6b/v52l/hnLP5Zi3/m/iH+sMQBy/u5q3vtxb+EzzcAAGRES764f+IETzXvO/v8sPM91fHXJsafhh/+d316y391vWj/g4/t3Bj3xFc0xpvM+EP/4m+yiI9ntRHjOr8GsNHi6x7fBvFtEd8m4e2kTy/+mYt/9uKfwV0nHJL476pHhUnh8w0AABlhUKAsFW/S46/Se/W1N8N9dN099fTz0fEnn9utD9CrRnxd4+scX/fw9pCaN4MCAIDMMihQFovfh7/l9hM6X1Y+b/78cG+defF1iq9bfB378mcOKMsZFAAAZJZBgbLeysWx0U/PvvBfPgciq+LrEF+X+DqF11PKVgYFAACZZVCg3tLAFUZHBx32k+j5F18J999NLz7m+Njj6xBeLymbGRQAAGSWQYF6W/FL9b+1x0HR408+G+7Hm058jPGxenuBel8GBQAAmWVQoN5avPn+9nd+ED37/Evh/rzHxccUH5sBgXpvBgUAAJllUKDeXr9BHdGeex/eFG9JiI8hPpb4mMLjlHpXBgUAAJllUKC+0jJDRkSHH3VqNPXDaeH+ve7iy4wvOz6G8Lik3plBAQBAZhkUqK+13GrrRedfeHk0f/6CcD9fc/FlxJcVX2Z4HFLvzqAAACCzDArUVxu/497hvr7m4ssIL1fqGxkUAABklkGB+mLrb7xj9O57H4T7+pqLLyO+rPDypd6fQQEAQGYZFKivtc239olmzfo43NPXzcyZs6Ktd9oncRxS786gAAAgswwK1Jfa/+BjowULFoZ7+bqLP6tg34OOThyP1HszKAAAyCyDAvWVjj3xnHD/3nBHn3BW4rik3plBAQBAZhkUqC902lm/CPfsPSYeWITHJ/W+DAoAADLLoEC9ubZ8KTr3/EvCvXqPO3PiRYljlXpXBgUAAJllUKDeWjwkuPjSq8I9etM4a+LFiWOWek8GBQAAmWVQoN5Ysw8J/sGwQL03gwIAgMwyKFBv7Oyf/Srck3fb62++3VmtHXfSOYnjl7KfQQEAQGYZFKi3dcoZF4R78W675/6HoxWHfa2z+P+utUN/fHLiekjZzqAAACCzDArUmzrmxLPDPXi3/eLi30bLDBnxz8uI/+8LLroi/GPdtu9BRyeuj5TdDAoAADLLoEC9pX2+f1S49+6WefPnd64ZXs4nLy/+M7WycOHCaNud901cjpTNDAoAADLLoEC9ofE77l3TTfv0GTOjLbebkLicsC22/W7nn62VWbM+jtb7+g6Jy5Gyl0EBAEBmGRQo6607bvtoxsxZ4Z67am+9/V60ztjtEpfzaa09dtvOv1Mr77z7fjRs5CaJy5GylUEBAEBmGRQoy8Ub6nhjXSvPPPti9NU1vp64nM8q/jtPP/NCuFzVnnnupWjIKmMSlyNlJ4MCAIDMMihQVsuttFb05NPPhXvsqj0y6YloudXWS1xO2oauum7nGrVy2533RUsP7khcjpSNDAoAADLLoEBZrC1fiq6/8dZwb121eINfi3/Bj9d45LHHw+WrdubEixKXIWUjgwIAgMwyKFAWO/7kc8M9ddXuvu+hzlcnhJdRbe0rrtm5Zq3ssddhicuQmj+DAgCAzDIoUNbaYdcDokWLFoX76arEG/p4Yx9eRner5bDg449nV/ThilJzZFAAAJBZBgXKUqW1v1GzryOM324w6CtrJy6jVg1eeZ2afWbBK6++UZO3RkiNy6AAACCzDAqUlfoPHRn97fGnwz10VeJvKOjOBxembfmvrlezb0O44Y+3JdaXmjeDAgCAzDIoUFY6/8LLw71zVV5+5fVopeEbJtavVysXx3ZeZi0cfMSJifWl5sygAAAgswwKlIV22v374Z65Ku9/MCUqrLlZYv1617HOFtGUKR+Gh1OxuXPnRuuO2z6xvtR8GRQAAGSWQYGavdXX2Dj68KNp4Z65YrNnz4nGbv7txPqNauNv7ta50e+ul15+LcrX8bMVpNpkUAAAkFkGBWrm2vKl6M67Hgj3yhWLvyXh29/5QWL9Rrf7XoeGh1aVX112TWJtqbkyKAAAyCyDAjVzh/zopHCPXJUjjz8jsXZPddxJ54SHV5Xtvr1fYm2peTIoAADILIMCNWvxZwnMmvVxuD+u2JXX/DGxdk8Wv0oi/gaD7nr7nfei5VdfP7G+1BwZFAAAZJZBgZqxfoM6ogf++li4N67YE089F7WvuGZi/Z4u/oyBZ59/KTzcil17wy2JtaXmyKAAACCzDArUjB3645PDPXHF4g9ALK61eWLtZmmNMVtGM2bOCg+7Yrt89+DE2lLPZ1AAAJBZBgVqtlYpbRRNnzEz3A9XbJtv7ZNYu9n61h4HhYddsXff+yAauuq6ibWlns2gAAAgswwK1Gxdff3N4V64Yuec9+vEus3aL399ZXj4FfMtCGq+DAoAADLLoEDN1Dd3+F64B67YpMlPRf2Hjkys3awNWH5U9NTTz4dXo2Kbjd8jsbbUcxkUAABklkGBmqX+y42KXnzptXD/W5H4WxJGjNkisXazt+bXto7mzJkbXp2KPP/iK523Ybi21DMZFAAAZJZBgZqlo084K9z7Vmy/HxyTWDcrHXT4CeHVqdiPjz09sa7UMxkUAABklkGBmqGVhm/Y7Q8wvPX2exLrZqm2fCm6864HwqtVkalTP4qGrDImsbbU+AwKAAAyy6BAzdDFl14V7nkrEn/N4OprbJxYN2sNG7lJ59snuuPsn/0qsa7U+AwKAAAyy6BAPd2aG4yPFixYGO53K3Lgoccl1s1qh/zopPDqVWTe/PlRxzrZ+5wG9bYMCgAAMsugQD3dTbfcGe51K/LyK69HKwzbILFuVouvyyuvvhFezYrEt2m4rtTYDAoAADLLoEA92Ubf2CXc41bthZdeja646obOf5Hf+Ju7RbmV1kpcXrMVH2N8G8THHB97fB1qZcvtJiQuT2pcBgUAAJllUKCe7O77Hgr3tzWzaNGi6KWXX4tuuuUv0VkTL472PvCoaNPxe0SrjRjX+cGB4bHUs/jDGsdtsUv0vQN+HJ1+zi+jP9x8R+fXGS5c2L23XPw7jzz2eOI4pMZlUAAAkFkGBeqpttpxr3Bv2zBz587tfMvC/Q8+Gl17wy3R+RdeHp1w6s+ig484Mdpz78OjnXY/MPrGNt+JNtzsW9G647bvLP4shdHrj//n/3+DTXbq/DM77HpAtNv3Du38esPjTz43Ovfnl0RXXntT5xAkHgZ8/PHs8OIbJr6Nw9tdakwGBQAAmWVQoJ7q3gceCfe11Fj8dYvh7S41JoMCAIDMMihQTxT/SzyNsdn4PRK3v1T/DAoAADLLoEA90V33/jXcz1In8Ss3wttfqn8GBQAAmWVQoEa3ztjtwr0sdRZ/nkJ4P0j1zaAAACCzDArU6C777fXhPpY6+83vfp+4H6T6ZlAAAJBZBgVqZMt/db1o9uw54T6WOps3f35UWvsbiftDql8GBQAAmWVQoEZ25PFnhHtYGuSKq25I3B9S/TIoAADILIMCNap+gzqiV159I9y/0iDz5y+IvrrG1xP3i1SfDAoAADLLoECNatud9w33rjTYWRMvTtwvUn0yKAAAyCyDAjWqm265M9y30mDvfzAlWnbIGon7Rqp9BgUAAJllUKBGtHJxbOdL3+l5u3z34MT9I9U+gwIAgMwyKFAjOuzIU8L9Kj3kz3fcm7h/pNpnUAAAkFkGBWpED/z1sXC/Sg9ZuHChDzVUAzIoAADILIMC1bthIzcJ96r0sCOPOyNxP0m1zaAAACCzDApU744+4axwn0oPe+SxxxP3k1TbDAoAADLLoED1bvITz4T7VJpA/EqP8L6SapdBAQBAZhkUqJ6NWm+rcH9Kk/D2A9U3gwIAgMwyKFA9O/G088L9KU3C2w9U3wwKAAAyy6BA9czbDpqbbz9Q/TIoAADILIMC1avV19g43JfSZL5/2PGJ+02qTQYFAACZZVCgenXIj04K96U0mZtuuTNxv0m1yaAAACCzDApUr+6864FwX0qTmTlzVtR/6MjEfSd1P4MCAIDMMihQPWpfcc1o3vz54b6UJvTNHb6XuP+k7mdQAACQWQYFqkfb7rxvuB+ljqZO/Sj8n1L72S8uS9x/UvczKAAAyCyDAtWjiRdcGu5HUzv4iBOj2bPnhP8zn+KJp56L1hizZbRo0aLwP6US//3w/pO6n0EBAEBmGRSoHj319PPhfjSVt95+L2rLl6Ltd9k/WrBgYfifCbzy6hvRysWxnbf5Q49MDv9zKvGAYbnV1kvch1L3MigAAMgsgwLVuq8UNgz3oqldfNnV/1xnn+8fFf5nPuGDKVOjjnW2+OftdcyJZ4d/JLUddj0gcT9K3cugAAAgswwKVOt2+e7B4T40tXDDevQJZ4V/hOjv31aw/sY7/sttNXLdb4Z/LLVzf35J4n6UupdBAQBAZhkUqNZV+/kE8bck5FZaK7Fe/CoD/kf8VoGddv9+4naKe+31t8I/nsojk55IrCV1L4MCAIDMMihQrXvkscfDfWgq9z/4aGKtuGWHrBHd+8Aj4R/vs44/+dzEbfSPLr3iuvCPpxJ/HkRXQxqp+gwKAAAyy6BAtWzgCqM7XxlQjZNPPz+x3j9aYdgGVf9reW9yze//1Plhj+Ht84/23Pvw8K+ktvE3d0usJ1WfQQEAQGYZFKiWxZvNam2y1e6J9T7Z2mO37Xxvfl/12N+e6hzEhLfLJ1tx2NfCv5ba4UedmlhPqj6DAgCAzDIoUC077MhTwv1nKnPnzYv6LzcqsV7Yt7/zg/Cv9gkffjQtGjZyk8Tt0VXPPPdS+NdT+d3Vf0isJVWfQQEAQGYZFKiW/eZ3vw/3n6k89MjkxFqf1s9/eXn413u9HXdL//WFl1x+bfjXU4kHDOFaUvUZFAAAZJZBgWrZ5CeeCfefqZx7fvqv54tfefC3x58Ol+i1Kv3qwgMOOS5cIpWFC32goWqZQQEAQGYZFKhWxd9OMH/+gnD/mcou3z04sd6/q7T2N6LpM2aGy/Q6Dz86ufN2Da//v2vNDcaHy6Q2drOdE+tJ1WVQAACQWQYFqlXxhw1Wq7jW5on1PqvdvndouEyvMmPmrGjYqE0T1/uz6jeoo/PvVmOvA49MrCdVl0EBAEBmGRSoVsWvCqjGR9OmJ9ZK21XX3RQu12vs8/2jEtc3bQ8+NClcLpXTz/llYi2pugwKAAAyy6BAteqEU38W7jtTufu+hxJrpW3oqutGb7/zXrhk5t16+z2J61pJF196VbhkKn+4+Y7EWlJ1GRQAAGSWQYFqVfz1etU4/8LLE2tV0va77B8umWlTP5wWrdoxLnE9K+ngI04Ml03lmWdfTKwlVZdBAQBAZhkUqFY9OunJcN+ZykGH/SSxVqVdcdUN4bKZNWG/IxLXr9I2Hb9HuGwq8+bPj5Ye3JFYT6o8gwIAgMwyKFCt+mDK1HDfmcrmW++ZWKvShqwyJnr3vQ/CpTPnz3fcm7hu1bTCsA3CpVNbfY2NE+tJlWdQAACQWQYFqkUDlh8V7jdTW2n4hon1qmnPvQ8Pl86UOXPmdn7tY3i9qq3abz4Yt8UuibWkyjMoAADILIMC1aKR634z3G+mEm9mw7W6U/zBiFl10k/PS1yf7vT4k8+GF5HKHnsdllhLqjyDAgCAzDIoUC3aase9wv1mKk89/Xxire40ar2tOt9nnzUvvfxa1H+5UYnr051uvOn28GJSOfK4MxJrSZVnUAAAkFkGBapF+x50dLjfTOXmW+9KrNXdzpx4UXgxTW/rnfZJXI/udu7PLwkvJpXzLvxNYi2p8gwKAAAyy6BAteiYE88O95upXHDRFYm1ultupbUy9cGGt915X+I61KL4lQHVuP7GWxNrSZVnUAAAkFkGBapF555f3b9exwOGcK1aFH/lYhYsWrQoWmfsdonjr0Xf2eeH4cWlEn/OQ7iWVHkGBQAAmWVQoFp0xVU3hPvNVOK3LIRr1aJlhoyInn/xlfDimk58u4XHXqu23G5CeHGpTH7imcRaUuUZFAAAZJZBgWrRrbffE+43U9l2530Ta9Wqnfc8KLy4phJ/HeLqa2ycOO5aNXr98eFFpvLa628l1pIqz6AAACCzDApUix5+dHK430zla5vulFirlv314b+FF9k0zjnv14njrWVfKWwYXmQq02fMTKwlVZ5BAQBAZhkUqBY98dRz4X4zleGjN02sVcuqffl9vcWvJlhh2AaJ461lA1cYHV5sav0GdSTWkyrLoAAAILMMClSLXn/jrXCvmcryX10vsVate+Sxx8OL7XHnX3h54jjr0bz588OLTmXoqusm1pIqy6AAACCzDApUi97/YEq410wl/tDBcK1at9239wsvtkfNnTcvWqW0UeI469HUqR+FF59Ko45PvTmDAgCAzDIoUC2aOXNWuNf8TLNnz0msU4/a8qXo8SefDS++x1x82dWJY6xX1b7So95vCVFfyKAAACCzDApUi6oxbfqMxDr1apfvHhxefI9YsGBhNGxU4zbhBgXquQwKAAAyy6BAtagaH0yZmlinXsUfzvfqa2+Gh9BwN950e+LY6lm1HzK51obbJNaSKsugAAAgswwKVIuqEf9rd7hOPTvyuDPCQ2i4zbfeM3Fc9azaQcG647ZPrCVVlkEBAEBmGRSoFlWj0YOC5VZbL/r449nhYTTMk08/lzimemdQoJ7LoAAAILMMClSLqtHoQUFc/EGCPWX/g49NHE+9MyhQz2VQAACQWQYFqkXV6IlBwZpf2zo8jIb4aNr0aOAKoxPHU++efuaF8FBS6Vhni8RaUmUZFAAAZJZBgWrRnDlzw73mZ+qJQUHcgw9NCg+l7i665MrEcTQi33qgnsugAAAgswwKVIvirzqs1PsfTEms04i+f9jx4aHU3djNv504jkZU7aBgtRHjEmtJlWVQAACQWQYFqkXxVx1WasbMWYl1GtGQVcZU9QqIaj3/4iuJY2hU8TCmGkNXXTexllRZBgUAAJllUKBaVO2/XIfrNKqrr785PJS6OfbEcxKX36jiYUw1DArU/QwKAAAyy6BAteipp58P95qp5FZaK7FWI9p6p33CQ6mLRYsW9djL+JcZMiI8nNT6DepIrCdVlkEBAEBmGRSoFt3/4KPhXjOVlYtjE2s1oqUHd1T1dolKxR+cGF52o1pp+Ibh4aQydepHibWkyjMoAADILIMC1aKbbvlLuN9MJf66wnCtRnXJ5deGh1NzRx53RuJyG9Xo9ceHh5PKCy+9mlhLqjyDAgCAzDIoUC367VU3hvvNVDbfes/EWo1qm2/V/+0HhTU3S1xuo9r4m7uFh5PKQ49MTqwlVZ5BAQBAZhkUqBZNvODScL+Zyq4TDkms1aj6Lzcqmj5jZnhINfO3x59OXGYj23G3A8JDSuVPf74rsZZUeQYFAACZZVCgWnT0CWeF+81UDvnRSYm1GtlV190UHlLNnHjaeYnLa2QHHX5CeEipXPbb6xNrSZVnUAAAkFkGBapF3933iHC/mcpZEy9OrNXIdt/r0PCQamb9jXdMXF4jO3PiReEhpXLu+Zck1pIqz6AAACCzDApUi7bcbkK430zlymtvSqzVyJZfff3OrzCstfibA3r6Kwavvv7m8LBSOfyoUxNrSZVnUAAAkFkGBapFo9bbKtxvpnLP/Q8n1mp0kyY/FR5Wt11/462Jy2l08VczViP+bINwLanyDAoAADLLoEC1aOAKo8P9Ziqvv/l2Yq1Gd8a5F4WH1W0HHHJc4nIa3VtvvxceViprbbhNYi2p8gwKAAAyy6BAtertdyrfmMYv+4+/fSBcq5FV+7aJf2fYqE0Tl9PI4tt04cKF4WGlkv/K2on1pMozKAAAyCyDAtWqB/76WLjnTGXtsdsm1mpk8aZ69uw54WFV7bXX30pcRqNbd9z24WGlMmXKh4m1pOoyKAAAyCyDAtWqK666Idx3prLzngcl1mp01b6fvyvX/P5PifUb3YT9qvsWikcnPZlYS6ougwIAgMwyKFCtOvG088J9Zyrx3wvXanTnnPfr8LCq9sOje/5bA04/55fhYaUSf1NCuJZUXQYFAACZZVCgWhW/MqAazfANAbtOOCQ8rKqN3fzbifUb3U233BkeVirHn3xuYi2pugwKAAAyy6BAtWrEmC3CfWcqz7/4SmKtRrdqx7jwsKoyd968qP/QkYn1G90rr74RHloqO+zqqxFVqwwKAAAyy6BAtWrpwR1VfShg/On87SuumViv0VX7dYKf9MhjjyfWbXTLrbZeeFipDRu5SWI9qboMCgAAMsugQLVs8hPPhHvPVDbZavfEWo2u2pfrf9Ill1+bWLfRbbvzvuFhpTJt+ozEWlL1GRQAAGSWQYFq2WW/vT7cf6Zy5HFnJNZqdNV+AOAnHXH0aYl1G93Jp/88PKxU7nvw0cRaUvUZFAAAZJZBgWrZQYefEO4/U7nuhp7/QMNqv1Lwk7baca/Euo3u9r/cFx5WKhf+6neJtaTqMygAAMgsgwLVsg022Sncf6YSfz5AuFajW2fsduFhVSz+UMRw3UbWli9FH02bHh5WKt874MeJ9aTqMygAAMgsgwLVsmWHrBHNmTM33IOmMnz0pon1Gln8bQULFiwMDyu1Dz+alliz0a09dtvwsFIrrrV5Yj2p+gwKAAAyy6BAte7hRyeHe9BU9vn+UYm1Gt2LL70WHlZqj0x6IrFeo/vRMT8NDyuVd9/7ILGW1L0MCgAAMsugQLXu3J9fEu5DU7niqhsSazW6O+66Pzys1K6/sec/Z+HW2+8JDyuVZjh29bYMCgAAMsugQLVuh10PCPehqTTD5xT8+jfXhoeVWjwgCddrZPFbJz7+eHZ4WKn88OhTE+tJ3cugAAAgswwKVOuGrDImWriwuvf6xx8oGK7XyH5yysTwkFI77MhTEus1ss233jM8pNQ23OxbifWk7mVQAACQWQYFqkeTJj8V7kVTOeonZybWamQT9v9ReEip7bT7gYn1GtkZ514UHlIq06bPiJYZMiKxntS9DAoAADLLoED16Nzzq/ucgnvufzixViPbdPwe4SGltt7Xd0is18iee+Hl8JBSueGPtyXWkrqfQQEAQGYZFKgebbndhHA/mkr89YTLf3W9xHqNasSYLcJDSu2ra3w9sV6jGrXeVuHhpLbfD45JrCd1P4MCAIDMMihQPYo/WG/mzFnhnjSVnvyaxOVXXz88nNTaV1wzsV6jOv7kc8PDSW3VjnGJ9aTuZ1AAAJBZBgWqVzfdcme4J03l5lvvSqzVqNrypfBwUpk7d25irUb2t8efDg8plSeeei6xllSbDAoAADLLoED16qDDfhLuS1OZM2du5zcnhOs1qqlTPwoP6TO98+77iXUa1bBRm4aHk9qZEy9KrCfVJoMCAIDMMihQvYpf0r5o0aJwb5rKvgcdnVivUb340mvh4XymZ559MbFOozrh1J+Fh5PaJlvtnlhPqk0GBQAAmWVQoHr24EOTwr1pKn+5+8HEWo3qkUlPhIfzmR7462OJdRpVNYONWPwqiH6DOhLrSbXJoAAAILMMClTPjjzujHB/msrChQt77EP27n3gkfBwPlP8d8J1GtHXt9w1PJTUfnHxbxPrSbXLoAAAILMMClTPho3cJNyfpnbsieck1mtE1QwK7rrnr4l1GtGvf3NteCipjdtil8R6Uu0yKAAAyCyDAtW7Ryc9Ge5RU3n5ldc7v4UgXK/exd+6UKn4Gx7Cdepd/HWM02fMDA8llTfeeqdHblv1pQwKAAAyy6BA9e6wI08J96mpbbHtdxPr1btqvtaxJwYF+x98bHgYqU284NLEelJtMygAAMgsgwLVuxWGbRDNn78g3Kumcu0NtyTWq3c3/PG28DA+0/U33ppYp949+fRz4WGktsEmOyXWk2qbQQEAQGYZFKgR3XTLX8K9airxgGG1EY39UMNqBgWNfkXB5lvvGR5Cak8/80JiPan2GRQAAGSWQYEa0a4TDgn3q6mddtYvEuvVs2reenDXvY39MMMbb7o9PITU4reChOtJtc+gAAAgswwK1Ij6Dx0ZfTBlarhnTWXKlA+jAcuPSqxZr6oZFDz86OTEOvUq/iaJBQsWhoeQyuzZc6Khq66bWFOqfQYFAACZZVCgRnXmxIvCfWtqBx1+QmK9enX3fQ+FF/+ZnnjqucQ69er8Cy8PLz61K6/5Y2I9qT4ZFAAAZJZBgRpVca3No0WLFoV711Tir0pcZsiIxJr16L4HHw0v/jO9+da7iXXq0YrDvhbNmTM3vPjUNh2/R2JNqT4ZFAAAZJZBgRrZbXfeF+5dU9tz78MT69Wjp55+Przoz/Txx7MT69SjsyZeHF50as8+/1JiPal+GRQAAGSWQYEa2fa77B/uX1OLvw6wLV9KrFnr3njrnfCiU6n35ygsv/r60axZH4cXm9pBh/0ksaZUvwwKAAAyy6BAjSze6D//4ivhHja1RryqYMbMWeHFprJqR32/xvHk038eXmRq8QdJDlxhdGJNqX4ZFAAAZJZBgRrdgYceF+5jU4tfPt9vUEdizVq19OCO8CJTG7PRdon1atVKwzeMZlY5wIideNp5iTWl+mZQAACQWQYFanTxv2zHX3lYrb0OPDKxZq1apbRReHGpbbvzvon1atWFv/pdeHGpxZ+fEL9tIVxTqm8GBQAAmWVQoJ7o5NPPD/ezqb3+xlt1+zyAsZvtHF5cavErJcL1atGIMVtE8+cvCC8utXjIEK4p1T+DAgCAzDIoUE80dNV1o2nTZ4R72tSOPuGsxJq16Ft7HBReVGrxZwiE69WiG/54W3hRqS1YsDAqrLlZYk2p/hkUAABklkGBeqrTzvpFuK9NLR4yrDBsg8Sa3e3gI04MLyq1Sy6/NrFedxu3xS7hxVTkiqtuSKwpNSaDAgCAzDIoUE8Vb/S783V/F11yZWLN7nb2z34VXkxqf7n7wcR63Sn+YMXJTzwTXkxq8+bPj4aP3jSxrtSYDAoAADLLoEA92VkTLw73t6ktXLgw+tqmOyXW7E433nR7eDGpvfb6W4n1utOhPz45vIiKXHzpVYk1pcZlUAAAkFkGBerJ4s8q+Gja9HCPm9ojk56o6dclPvn0c+FFpBYPLpYdskZizWr6SmHDaPqMmeFFpDZnztzOb3AI15Ual0EBAEBmtbYX9k2e4EmN66ifnBnucytSy28biL9KsDvibygI16ymq667KVy6Iuf+/JLEmlJjK90fPt8AAJARrfnSt5MneFLjGrjC6OjNt94N97qpxR9suGrHuMS6lfbVNb4eLl2xHXY9ILFupW21417hshWZMXNWXT7oUaqwO8PnGwAAMqKtvbhTFyd4UkPb/+Bjw/1uRW665c7EmpW27c77hstW7NgTz0msW0mDV14neuOtd8JlK3LcSd07BqlG3Rg+3wAAkBHlk7lxXZzgSQ0t/pyB7nzCf2y37x2aWLeSjjnx7HDJil15zR8T61bSpVdcFy5ZkfgDFQcsPyqxrtTw8qXfhc83AABkREuuMDxxgif1QBt/c7dw31uRqVM/ilYujk2sm7arr785XLJiTzz1XGLdtG2/y/7hchXbdcIhiXWlHilfOjN8vgEAICPKJ3NLJ07wpB6qux/i9+c77o3a8qXEuml65tkXw+UqNnfu3GiZISMSa39Wy622XvT2O++Fy1XkL3c/mFhX6rHaC4eEzzcAAGTH58ondQsSJ3lSD7TaiHHRzJmzwj1wRX7wwxMT635WuZXWihYsWBguVZUxG22XWP/fFQ82/vinO8JlKjJv/vxo1HpbJdaWeqq29tKO4ZMNAAAZUj6peyY8yZN6qh8d89NwH1yROXPmRmuP3Tax7r9rs/F7hMtUrdKva/zh0aeGS1TszIkXJdaVerK29uLo8LkGAIAMac0VrglP8qSeaunBHdGkyU+Fe+GKPP/iK52vEgjX/rSOPuGscImq/fo31ybW/7Q22GSnaO68eeESFXn5ldc7v2IyXFvqyZYYXPhy+FwDAECGtOVKx4QneVJPtt7Xd+j2WwGuuOqGxLqf1h9uviP861V7/MlnE+t31ZBVxkSvvPpG+NcrtuX2ExJrSz1ae/G18HkGAICMKZ/UbZU40ZN6uLN/9qtwT1yx7x92fGLdrnrv/SnhX61aPODIf2XtxGV8slp8LkHsksvTv3pBamA3hc8zAABkTEuusEwXJ3pSjzZg+VHRcy+8HO6NKxJ/yN+4LXZJrP3J4g8BrLVtvrVP4nI+2Wln/SL8KxV74613osErr5NYW+r5CkeEzzMAAGRQ+eTuxeTJntSzfW3TnaL58xeEe+SKxK8WiL9NIVz7Hx10+AnhX+m2M8799A8X3GOvw8I/XpXxO+6dWFtqhlrypXXC5xgAADKoJVf8dXiyJzVDJ59+frhHrthjf3sqal9xzcTacdfecEv4x7vtwYcmJS4nbv2Nd4xmz54T/vGKXXDRFYm1pWaoLVecm8+P+UL4HAMAQAa15Arbhyd8UjO0zJARnRv97oo/sLDfoI5/WTv+rIBafj7BP8RveQi/dWHVjnHRm2+9G/7Rij3z7Iudb8sIbyepGWrLlW4Ln18AAMioL7evukT5JG9BeNInNUOltb8RzZg5K9wzV2ziBZf+y7rrjts+/CM1s+NuB/zzcuJvOHjq6efDP1KxuXPnRuuM3S5x+0hNU3th3/D5BQCADCuf5N2ROOmTmqQ99z483DdX5YdHn/rPNY876ZzwP9fMhb/6XedlxP/6f/+Dj4b/uSrx5ymEt4vUTC0xuNAePrcAAJBh5ZO8vcOTPqmZuviyq8O9c1W+d8CPO9er1Qa+K6++9ma09OCOzrc81EL8WQrh7SE1V6WHw+cVAAAybtllCy3lk715yZM/qTkauMLomryEP/4mhQn7/yhasGBh+J9q6pbb7g7/p6q88NKr0aCvrJ24PaSmqr2wT/i8AgBAL9CaK1yTOPmTmqjiWptHH340LdxL91ozZ86K1txgfOJ2kJqp+NsOvjRg5JLhcwoAAL1AS/vwTcITQKnZGr/j3tHChfV9NUCz2HXCIYnrLzVd7cUrwucTAAB6j8+15gvPJU4CpSbr6BPOCvfUvc5pZ/0icb2lZqytvTg6fDIBAKAXacsXJoQngVKz1ZYvRdf8/k/h3rrXiD8EMb6O4fWWmrB7w+cRAAB6mQEDRv5X+cTvgy5OBqWmqv9yo6IHH5oU7rEzb/ITz0S5ldZKXF+pGWsZWNwsfB4BAKAXamsvHhyeDErN2ArDNohefOm1cK+dWa+/+Xa0SmmjxPWUmrPCpPJTxufC5xAAAHqh//+qgjeTJ4VS87XGmC2jqVM/CvfcmTNt+gzfcKBM1ZYfPjZ8/gAAoBdraS/tEZ4USs3aRt/YJZo9e064986M+Ng3Hb9H4npJzVpbrnRb+LwBAECvN+bz8ctKw5NDqVmLvzZx3vz54R686S1YsDDacbcDEtdHauIWlBsWPmsAANAH9MsPX6N8Mrioi5NEqSnbdcIh0cKFC8O9eNOKj3XCfkckrofUzLXlij8Nny8AAOhDWnKlieFJotTMHXDIceF+vGn94If/r717gbKjrg84vgkRxUdCsjOzOcnuzGzYmupKSnZmdlleXW3FIqgooqX2qMcX5agcaxW0ihVrFXy0trWlauujaoXSB1WrteLzUCxWrYWDFPUAWlGB8rSQCEm2/5t6bPu/wyPJ7ubevZ/POd+zOUD2ce/M//5/l7tzz+n6/qVeLivq76Tp5MPjxwoAAAbIweVhB+/eGLZsGKVerTOA9zpPEqhPOy5+nAAAYABleX1k2BzubNkwSj1bLz9Z4EkC9WVl8/vx4wMAAAMsK6uzuzaNUo/Xi08WeJJAfdq/TUxMPDh+bAAAYKDNrUqK+uKWzaPU073k5a/vmXdDOPOsc7u+P6kPuiMZrzfHjwoAADC0enR2XdgwfqtlEyn1dM989kvnt23bHs/tS+q3z3ln1/cl9UE7k6I6Pn48AACAnxouph4VNo63t2wmpZ7uaaectl+eLOi8BeKrXveWru9H6oeyvD4jfhwAAIAuSVE9Nmwg74o3lFKvt9RPFmzf/uP55512Ztf3IfVDSV6fF6//AABwr5J86oSwkbw73lhKvd6TTn7h/O13/Cie6RfcLbfePn/8Sc/v+vpSP5QV9V8MDZ18QLz2AwDAfUrK+pSwobwn3mBKvd7Rxz5z/vrv3xDP9gvm+z+4cf6oxz+j6+tKfVFZf3RocvLAeM0HAIAHJMmbJ6V+DUF92KHTx81fceXV8Yy/z6659rvz9dFP6fp6Up90oScJAADYZ0nZ/HzqAofqw8pHHzP/6c9eEs/6e+2yf/n6/Oatv9j1daS+KK/e59cNAABYMCNj9WPCRvOaro2n1OOt3zQ9/6fvvyCe+ffYh86/aH7jxGzX55f6orI5JyzlK+K1HQAA9snq0dl1SVFf3LUBlfqgM886d37Hjp3x/H+/On/nNWe/revzSX3S9qRonhWv5wAAsIBOPiDNqzeFzefOlg2p1NOd8PQX7L4Q4QN14003zz/lGS/q+jxSf1R9b6ScOjxexQEAYFGk480xSVFf170xlXq7Rx72C/Mf+8Rn4ucEulz8uX+af3R1bNffl/qhJK8v6rwKLF67AQBgUa3dVK1Ji+Y98QZV6odOf8XZ83feeVf8/MD8tm3b58947TnzWdl0/R2pD+q8S82Lh1yPAACA/SkrpmfDxvRfWzasUk83M/fU+Suv+uZPnyT4xlXfmj/icU/v+u+kfigp6k+P5M2meI0GAID9ZPe1C16aFs0t8eZV6uXGNh85/94/v3B3nT/H/17qg27M8vrZ8aoMAAA9YePG6eGkaP44bFx3tGxmJUkL191ZUb+982tg8VoMAAA9Jxuf2hI2sZ9r2dhKkva9jyebph8Zr70AANDzsqI+KS2qa1s2uZKkPe8bWTn1hHitBQCAvlKWcw9Ji+q1YYN7Z8umV5J0/92a5tXpQ0Nzq+I1FgAA+tbw6OzGrGg+3LIBliS1tyMtqj/qXP8lXlMBAGDZyIrmiLRovtKyIZYk/aSkqC8eGa0OjddQAABYrlaGjfDz0qK5Id4cS9KA9+2srE6MF00AABgI6yZmVidF9dawMb67ZbMsSYPUHWlenTkxMfHgeK0EAICB03mbr7BJ/njLxlmSlnu7Qu/NxmdG4rURAAAGXlo2vxQ2zP/espGWpOXYJUk+VcVrIQAA8H9V1YOSsv71sIG+rWVTLUn9X15/N6xzvxxWvBXxEggAANyLkUO2ZFlRvTv9n5fldm+0Jan/uisr69ePjs4eFK95AADAAxQ21lvTsvliy4Zbkvqpj6zbODMar3EAAMDeWdF5mW7n5botm29J6uGar2RFc0S8qAEAAAtgw4bqoZ2X7YbN97buzbgk9VQ/TMvmuWHpWhmvZQAAwAJbu6nK07K6oGVjLkn7tayof5zmzZuTzUc+Il67AACARZaON8ekRfX1eKMuSfujpKj/diRvNsVrFQAAsLRWJmV9atik3xRv2iVpSSrry4eLqcfFixMAALAfHVwednBaVu8Im/Z7ujbxkrQ4/WdWVqcNDc2titckAACgRwwXU49K8/pTLRt6SVqo7uk8MbkmP3RtvAYBAAA9KsmbJ4XN/LdaNviStC99svOEZLzmAAAA/WBy8sAsr88IG/s7Wjb7krQnXR16YrzMAAAAfSgtm/VpXr0vbPJ3tWz+Jem+ui0pqpcPVdWD4rUFAADoc8NjTZMWzZdaBgFJituZlfW71k9sTeO1BAAAWF5WZHnzq2EIuL5lMJCkTp/Pxqd/Ll48AACAZWxkZMvD0rx6UxgItrcMCZIGsurarKhPitcLAABggIwU0+NhOPib7oFB0gD1X2nZvLos5x4SrxEAAMCAGi6mHheGhStaBghJy7my/kAytnVDvCYAAAAEc6vC4PDitGhu6RomJC2zmi8Nj9fT8SoAAADQZfXo7LowSLwztKN7uJDU512fFM2zwqm+Ij73AQAA7tPIaHVoVjSfaRk0JPVf28L5/IbOhUzjcx0AAGCPZMX0UztXQ28ZPCT1Q2V1wfry8DI+twEAAPZa52roYeD4zbRzdfR4CJHUq30tHW+Oic9nAACABTM8OrsxKeoPtgwkknqm5oYkb14YTtmV8TkMAACwKLJiejYt6y93DyiS9mN3J0X11nUTM6vjcxYAAGAprEzL5rlhOPlhy8AiaSkr64+mozM/E5+kAAAAS67zfy+Tsj43DCt3dw0vkha1rKiuzMarY+PzEgAAYL9LR6cm0qL5WDzISFqMmlvCx5cMDc2tis9FAACAnpKVU08IA8xV3YONpAVoR+idq0dn18XnHgAAQA+bW5WU9cvCQHNry6AjaW8q639cnzeT8dkGAADQN9ZPbE2zsn5XGHJ2dg09kh5o307G6ifH5xcAAEDfSsvmsDSvv9AyAEm69+7IivqVQ5OTB8bnFAAAwLKQls0zw+DznZaBSNL/tistmvdk4zMj8TkEAACw7IyOzh6U5PVvhWHorpYBSRrsyuaLSVFNxecNAADAsrd2U5WneX1+16AkDWBJUV/XecVNODVWxOcKAADAQEnHpo4Og9LX4sFJGpDuTPLmdZ1X2sTnBgAAwCBbGYalF4Wh6caWQUpalmVF8+F1G2dG45MBAACAn1i7qVqTFfXvhiHqnniokpZNZf3lrJiejY9/AAAA7sVwWf1sGKg+2TVgSf3d99Oyes6Q6xAAAADsnaSojg+D1TdbBi6pn9qe5s2b03Ty4fExDgAAwJ6anDwwK+pXhmHrjpYBTOr1/nqkmB6PD2sAAAD2UTY+MxKGrj8L7WoZxqTeqqwvT8p6Lj6OAQAAWGBJPlWFQezSrsFM6o1uSsr61KGhkw+Ij10AAAAWz4qkqH4lLarvtQxq0v7ons47dhxcHnZwfLACAACwREZGtjwsDGhvDG1rGdykpeoTyXi9OT4+AQAA2E86F4sLw9pftQxw0mJ2Vei4+HgEAACgRyRF9djOReRaBjppIbs1KeuXDVXVg+JjEAAAgJ4ztyorq9Oyor65ZcCT9qUdSV6ft35iaxofdQAAAPS4Nfmha8Ng94ed4a5l4JP2tM9m41Nb4uMMAACAPrM+byaTov50y+AnPZCuyYrmafFxBQAAQJ/LyurEztDXMghKbf0oLZtXT0xMPDg+lgAAAFgmOkNfZ/jbPQR2D4ZSp11p3rw/HCfr4+MHAACAZSoZ27ohLesPtAyJGuwuHR5rmvh4AQAAYECMlFOHZ3l9WcvAqIGq+l5S1qeEQ2JFfIwAAAAweFakZfWcMDD+oHuA1DJvW1ZWZ2/YUD00PigAAAAYcMnmIx+Rls05WVH/uGWg1HIrr89fu6nK4+MAAAAA/p9srDokK+u/6xostVz6appXR8X3OwAAANynbLw6NiuqK1sGTfVlzQ3h4/PCXbsyvq8BAADgAZpblebV6WHAvLV78FQ/1PlVkqSsz103MbM6vncBAABgr2zYUCVJXp8XBs+d8SCq3i3cZxelo1MT8f0JAAAACyIbn9oSBtDPxwOpeq4rsrx+fHz/AQAAwKJI8+rkpKivaxlQtR/Livrm8PHFnV8Zie8zAAAAWFSjo7MHJUV1VhhM74oHVi15O0J/sCY/dG18PwEAAMCSWrdxZjQMqR9pGV61FOX1p9blM4+O7xcAAADYr7K8PjIMrl/tGmS1OJXVN5N86oT4fgAAAIBesjIpqhekRXND12Crher2rGheMTQ5eWB84wMAAEBPWrupWhOG2beFofbulkFXe9eurKjePXLIliy+vQEAAKAvJOP15jDgfqJl6NWelNdfSMvmsPj2BQAAgL4Uht3jQld3DcC6z3a/BWVenRzfngAAAND/JicPTIrqN8IAfHs8EKurO0Ov6bwFZXwzAgAAwLLS+R37tGjeEwbhXS0D8sCXFPUHh0dnN8a3GwAAACxrSVFNhcH4knhQHtSSov7nkXLq8Ph2AgAAgEGyIinrU8Kg/B/x4DxAXZ/l9bM7t0V84wAAAMBA2rChemhWNG8IQ/O2lkF6udb5WX9nZGTLw+LbAwAAAAjWl4eXadn8ZctQvdy6cKSYHo9/fgAAAKBFmldHhWH60pYBu9+7JMvrI+OfFwAAALh/K9K8fnoYrq9uGbj7q7K+PBmrnxz/gAAAAMCeW5kV9UlZXl/WNYD3eFnRfCZ8fOKQCxUCAADAwkvHpo7OiupDaW9f9PC2LK//pPP2j/H3DwAAACyCtZuqNVlZ/Vqa118Ig/nOlmF9qes8cfH3nbd6LMu5h8TfLwAAALBENm6cHk7L6jlhUL8wdGPLEL9YXRN6b1ZWJ3qLQwAAAOhRyXi9OQzwz++8/D8tmy+mRXNLy5C/Z+X1d9O8+YesqN8ePj4jGdu6If66AAAAQJ8YOWRLloxN10k+dUJS1qcmRXVWVtavT/P699KyekenpKjfsvufldWr0rJ5blZOPWFkrH7MuomZ1fHnAwAAAAAAAAAAAAAAAAAAAAAAAAAAAAAAAAAAAAAAAAAAAAAAAAAAAAAAAAAAAAAAAAAAAAAAAAAAAAAAAAAAAAAAAAAAAAAAAAAAAAAAAAAAAAAAAAAAAAAAAAAAAAAAAAAAAAAAAAAAAAAAAAAAAAAAAAAAAAAAAAAAAAAAAAAAAAAAAAAAAAAAAAAAAAAAAAAAAAAAAAAAAAAAAAAAAAAAAAAAAAAAAAAAAAAAAAAAAAAAAAAAAAAAAAAAAAAAAAAAAAAAAAAAAAAAAAAAAAAAAAAAAAAAAAAAAAAAAAAAAAAAAAAAAAAAAAAAAAAAAAAAAAAAAAAAAAAAAAAAAAAAAAAAAAAAAAAAAAAAAAAAAAAAAAAAAAAAAAAAAAAAAAAAAAAAAAAAAAAAAAAAAAAAAAAAAAAAAAAAAAAAAAAAAAAAAAAAAAAAAAAAAAAAAAAAAAAAAAAAAAAAAAAAAAAAAAAAAAAAAAAAAAAAAAAAAAAAAAAAAAAAAAAAAAAAAAAAAAAAAAAAAAAAAAAAAAAAAAAAAAAAAAAAAAAAAAAAAAAAAAAAAAAAAAAAAAAAAAAAAAAAAAAAAAAAAAAAAAAAAAAAAAAAAAAAAAAAAAAAAAAAAAAAAAAAAAAAAAAAAAAAAAAAAAAAAAAAAAAAAAAAAAAAAAAAAAAAAAAAAAAAAAAAAAAAAAAAAAAAAAAAAAAAAAAAAAAAAAAAAAAAAAAAAAAAAAAAAAAAAAAAAAAAAAAAAAAAAAAAAAAAAAAAAAAAAAAAAAAAAAAAAAAAAAAAAAAAAAAAAAAAAAAAAAAAAAAAAAAAAAAAAAAAAAAAAAAAAAAAAAAAAAAAAAAAAAAAAAAAAAAAAAAAAAAAAKAn/DdFwXBlOhMDogAAAABJRU5ErkJggg==;clipPath=inset(17.26% 29.33% 19.03% 28.67%);" vertex="1" parent="1">
                    <mxGeometry x="402.5" y="40" width="35" height="40" as="geometry"/>
                </mxCell>
            </root>
        </mxGraphModel>
    </diagram>
</mxfile>